<svg xmlns="http://www.w3.org/2000/svg" xmlns:xlink="http://www.w3.org/1999/xlink" width="1200" height="1200" viewBox="0 0 1200 1200"><g><g transform="translate(600 600) scale(0.69 0.69) rotate(0) translate(-600 -600)" style="fill:#FFFFFF"><svg fill="#FFFFFF" xmlns:x="http://ns.adobe.com/Extensibility/1.0/" xmlns:i="http://ns.adobe.com/AdobeIllustrator/10.0/" xmlns:graph="http://ns.adobe.com/Graphs/1.0/" xmlns="http://www.w3.org/2000/svg" xmlns:xlink="http://www.w3.org/1999/xlink" version="1.1" x="0px" y="0px" viewBox="0 0 100 100" style="enable-background:new 0 0 100 100;" xml:space="preserve"><g><g i:extraneous="self"><path d="M97.3,88.3l-6.7-12.2c-0.3-0.6-1-1-1.7-1c-0.7,0-1.4,0.4-1.7,1l-2.2,3.8l-11.1-6.4V52.1c0-1.8-1-3.5-2.5-4.4L52.8,37V24.2    h4.4c0.7,0,1.4-0.4,1.7-1c0.3-0.6,0.3-1.4,0-2L51.7,9.4c-0.7-1.2-2.7-1.2-3.4,0l-7.2,11.9c-0.4,0.6-0.4,1.4,0,2c0.4,0.6,1,1,1.7,1    h4.4V37L28.6,47.7c-1.6,0.9-2.5,2.6-2.5,4.4v21.4l-11.1,6.4l-2.2-3.8c-0.4-0.6-1-1-1.7-1c-0.7,0-1.4,0.4-1.7,1L2.7,88.3    c-0.3,0.6-0.3,1.3,0,1.9c0.3,0.6,1,1,1.7,1l13.9,0.3c0,0,0,0,0,0c0.7,0,1.3-0.4,1.7-1c0.4-0.6,0.4-1.4,0-2l-2.2-3.8l11.1-6.4    l18.5,10.7c0.8,0.5,1.7,0.7,2.5,0.7c0.9,0,1.7-0.2,2.5-0.7l18.6-10.7l11.1,6.4l-2.2,3.8c-0.4,0.6-0.4,1.4,0,2c0.4,0.6,1,1,1.7,1    c0,0,0,0,0,0l13.9-0.3c0.7,0,1.3-0.4,1.7-1C97.6,89.6,97.6,88.9,97.3,88.3z M31.7,55.6l15.5,8.9v17.9l-15.5-8.9V55.6z M50,41.8    l15.5,8.9L50,59.7l-15.5-8.9L50,41.8z M52.8,64.6l15.5-8.9v17.9l-15.5,8.9V64.6z"></path></g></g></svg></g></g></svg>