<svg xmlns="http://www.w3.org/2000/svg" xmlns:xlink="http://www.w3.org/1999/xlink" width="1200" height="1200" viewBox="0 0 1200 1200"><g><g transform="translate(600 600) scale(0.69 0.69) rotate(0) translate(-600 -600)" style="fill:#FFFFFF"><svg fill="#FFFFFF" xmlns="http://www.w3.org/2000/svg" xmlns:xlink="http://www.w3.org/1999/xlink" version="1.1" x="0px" y="0px" viewBox="0 0 96 96" enable-background="new 0 0 96 96" xml:space="preserve"><path d="M48,8.268c-16.541,0-29.998,13.458-29.998,30c0,11.297,15.035,32.434,29.105,48.447L48,87.732l0.891-1.02  c6.829-7.82,29.107-34.425,29.107-48.445C77.999,21.726,64.541,8.268,48,8.268z M48,50.41c-6.706,0-12.142-5.437-12.142-12.143  S41.294,26.125,48,26.125s12.142,5.437,12.142,12.143S54.706,50.41,48,50.41z"></path></svg></g></g></svg>