<svg xmlns="http://www.w3.org/2000/svg" xmlns:xlink="http://www.w3.org/1999/xlink" width="1200" height="1200" viewBox="0 0 1200 1200"><g><g transform="translate(600 600) scale(0.69 0.69) rotate(0) translate(-600 -600)" style="fill:#FFFFFF"><svg fill="#FFFFFF" xmlns="http://www.w3.org/2000/svg" xmlns:xlink="http://www.w3.org/1999/xlink" version="1.1" x="0px" y="0px" viewBox="1 -1 100 100" style="enable-background:new 1 -1 100 100;" xml:space="preserve"><title>45 all</title><title>45 all</title><title>45 all</title><g><path d="M85.7,49L51,14.3c-2.4-2.4-5.8-3.6-9.1-3.2l-17.1,1.6c-5.4,0.6-9.7,4.8-10.2,10.2l-1.7,17c-0.4,3.4,0.8,6.7,3.2,9.1   L51,83.7c2.1,2.1,5,3.3,8.1,3.3l0,0c3.1,0,5.9-1.2,8.1-3.3L85.8,65c2.1-2.1,3.3-5,3.3-8.1C89,54,87.8,51.1,85.7,49z M83.2,57.1   c0,1.5-0.6,2.9-1.6,3.9L63,79.6c-1,1-2.4,1.7-3.9,1.7c-1.5,0-2.9-0.6-3.9-1.7L20.4,44.9c-1-1-1.6-2.4-1.7-3.9c0-0.2,0-0.4,0-0.6   l1.7-17c0.3-2.6,2.3-4.7,5-5l17-1.7c0.2,0,0.4,0,0.6,0c1.5,0,2.9,0.6,3.9,1.6l34.8,34.7C82.6,54.2,83.2,55.6,83.2,57.1z"></path><path d="M38.1,26.3L38.1,26.3c-5.4,0-9.7,4.4-9.7,9.6c0,2.6,1,5,2.8,6.9c1.9,1.9,4.3,2.9,6.9,2.9s5-1,6.9-2.8   c1.9-1.9,2.9-4.3,2.9-6.9c0-2.6-1-5.1-2.9-6.9C43.1,27.3,40.7,26.4,38.1,26.3z M41.9,36c0,1-0.4,2-1.1,2.8   c-0.7,0.7-1.7,1.1-2.8,1.1c-2.1,0-3.9-1.8-3.9-3.9c0-1,0.4-2,1.1-2.8c0.7-0.7,1.8-1.1,2.7-1.1c1,0,1.9,0.4,2.8,1.1   C41.5,34.1,41.9,35,41.9,36z"></path></g></svg></g></g></svg>