<svg xmlns="http://www.w3.org/2000/svg" xmlns:xlink="http://www.w3.org/1999/xlink" width="1200" height="1200" viewBox="0 0 1200 1200"><g><g transform="translate(600 600) scale(0.69 0.69) rotate(0) translate(-600 -600)" style="fill:#FFFFFF"><svg fill="#FFFFFF" xmlns="http://www.w3.org/2000/svg" xmlns:xlink="http://www.w3.org/1999/xlink" xml:space="preserve" version="1.1" style="shape-rendering:geometricPrecision;text-rendering:geometricPrecision;image-rendering:optimizeQuality;" viewBox="0 0 316 211" x="0px" y="0px" fill-rule="evenodd" clip-rule="evenodd"><defs><style type="text/css">
   
    .fil0 {fill:#FFFFFF;fill-rule:nonzero}
   
  </style></defs><g><path class="fil0" d="M316 17l0 177c0,9 -8,17 -17,17l-282 0c-9,0 -17,-8 -17,-17l0 -177c0,-9 8,-17 17,-17l282 0c9,0 17,8 17,17zm-268 7l110 83 110 -83 -220 0zm244 12l-124 94c-6,4 -14,4 -20,0l-124 -94 0 151 268 0 0 -151z"></path></g></svg></g></g></svg>