<svg xmlns="http://www.w3.org/2000/svg" xmlns:xlink="http://www.w3.org/1999/xlink" width="1200" height="1200" viewBox="0 0 1200 1200"><g><g transform="translate(600 600) scale(0.69 0.69) rotate(0) translate(-600 -600)" style="fill:#FFFFFF"><svg fill="#FFFFFF" xmlns="http://www.w3.org/2000/svg" xmlns:xlink="http://www.w3.org/1999/xlink" version="1.1" x="0px" y="0px" viewBox="0 0 1024 1024" style="enable-background:new 0 0 1024 1024;" xml:space="preserve"><g><g><g><path d="M675.7,366.1c0.5,8.9-0.4,18.1-1.6,26.9c0.6-4.4,1.2-8.9,1.8-13.3c-2.7,19.6-8,38.8-15.6,57.1     c1.7-4,3.4-8,5-11.9c-7.7,18.2-17.7,35.2-29.7,50.8c2.6-3.4,5.2-6.7,7.8-10.1c-12.9,16.6-28,31.2-44.6,44.1     c3.4-2.6,6.7-5.2,10.1-7.8c-26,20-54.9,35.7-85.1,48.5c4-1.7,8-3.4,11.9-5c-46.8,19.7-95.9,31-144.3,45.6     c-12.4,3.7-24.2,8.3-36,13.4c-16.1,7-29.9,16.8-43.5,27.9c-12.3,10.1-22.2,22.4-31.5,35.2c-5.8,7.9-10.7,16.4-14.8,25.3     c-6.1,13.2-12.8,27.9-15.2,42.5c-2.1,6.6-2.4,13.3-0.9,19.9c0.3,6.7,2.3,12.9,5.9,18.6c6.1,10.4,18,20.3,29.9,23     c12.8,2.9,27.2,2.3,38.5-5c10.3-6.6,21-17.3,23-29.9c1.4-9,4.7-17.9,8.2-26.3c-1.7,4-3.4,8-5,11.9c4.9-11.5,11.2-22.3,18.7-32.2     c-2.6,3.4-5.2,6.7-7.8,10.1c7.2-9.3,15.5-17.6,24.8-24.9c-3.4,2.6-6.7,5.2-10.1,7.8c9.4-7.2,19.5-13,30.3-17.7     c-4,1.7-8,3.4-11.9,5c26.3-11,54.8-16.9,82.1-24.6c41.1-11.7,81.6-25.7,120.1-44.3c18.9-9.2,37.2-19.7,54.4-32     c21-15.1,41.1-31.5,57.8-51.3c27.8-33,48.9-71.1,59.3-113.2c4-16.2,6.5-33,7.7-49.6c0.3-4.8,0.6-9.7,0.3-14.5     c-0.8-13.3-5.1-25.8-14.6-35.4c-8.7-8.7-22.9-15.2-35.4-14.6c-12.9,0.6-26.3,4.8-35.4,14.6C681.6,340.2,674.9,352.8,675.7,366.1     L675.7,366.1z"></path></g></g><g><g><path d="M348.4,821.2c0-20.6,0-41.1,0-61.7c0-49.4,0-98.8,0-148.1c0-59.5,0-119,0-178.6c0-51.4,0-102.8,0-154.2     c0-24.9,0.3-49.9,0-74.8c0-0.3,0-0.7,0-1c0-12.8-5.6-26.3-14.6-35.4c-8.7-8.7-22.9-15.2-35.4-14.6c-12.9,0.6-26.3,4.8-35.4,14.6     c-9,9.8-14.6,21.8-14.6,35.4c0,20.6,0,41.1,0,61.7c0,49.4,0,98.8,0,148.1c0,59.5,0,119,0,178.6c0,51.4,0,102.8,0,154.2     c0,24.9-0.3,49.9,0,74.8c0,0.3,0,0.7,0,1c0,12.8,5.6,26.3,14.6,35.4c8.7,8.7,22.9,15.2,35.4,14.6c12.9-0.6,26.3-4.8,35.4-14.6     C342.8,846.8,348.4,834.8,348.4,821.2L348.4,821.2z"></path></g></g><g><g><path d="M746.1,295.7c0,3.2-0.2,6.4-0.7,9.7c0.6-4.4,1.2-8.9,1.8-13.3c-0.9,6.2-2.6,12.2-5,18c1.7-4,3.4-8,5-11.9     c-2.5,5.6-5.6,10.9-9.3,15.7c2.6-3.4,5.2-6.7,7.8-10.1c-3.5,4.4-7.5,8.4-11.9,11.9c3.4-2.6,6.7-5.2,10.1-7.8     c-4.9,3.8-10.1,6.9-15.7,9.3c4-1.7,8-3.4,11.9-5c-5.8,2.4-11.8,4.1-18,5c4.4-0.6,8.9-1.2,13.3-1.8c-6.5,0.8-12.9,0.8-19.3,0     c4.4,0.6,8.9,1.2,13.3,1.8c-6.2-0.9-12.2-2.6-18-5c4,1.7,8,3.4,11.9,5c-5.6-2.5-10.9-5.6-15.7-9.3c3.4,2.6,6.7,5.2,10.1,7.8     c-4.4-3.5-8.4-7.5-11.9-11.9c2.6,3.4,5.2,6.7,7.8,10.1c-3.8-4.9-6.9-10.1-9.3-15.7c1.7,4,3.4,8,5,11.9c-2.4-5.8-4.1-11.8-5-18     c0.6,4.4,1.2,8.9,1.8,13.3c-0.8-6.5-0.8-12.9,0-19.3c-0.6,4.4-1.2,8.9-1.8,13.3c0.9-6.2,2.6-12.2,5-18c-1.7,4-3.4,8-5,11.9     c2.5-5.6,5.6-10.9,9.3-15.7c-2.6,3.4-5.2,6.7-7.8,10.1c3.5-4.4,7.5-8.4,11.9-11.9c-3.4,2.6-6.7,5.2-10.1,7.8     c4.9-3.8,10.1-6.9,15.7-9.3c-4,1.7-8,3.4-11.9,5c5.8-2.4,11.8-4.1,18-5c-4.4,0.6-8.9,1.2-13.3,1.8c6.5-0.8,12.9-0.8,19.3,0     c-4.4-0.6-8.9-1.2-13.3-1.8c6.2,0.9,12.2,2.6,18,5c-4-1.7-8-3.4-11.9-5c5.6,2.5,10.9,5.6,15.7,9.3c-3.4-2.6-6.7-5.2-10.1-7.8     c4.4,3.5,8.4,7.5,11.9,11.9c-2.6-3.4-5.2-6.7-7.8-10.1c3.8,4.9,6.9,10.1,9.3,15.7c-1.7-4-3.4-8-5-11.9c2.4,5.8,4.1,11.8,5,18     c-0.6-4.4-1.2-8.9-1.8-13.3C745.8,289.2,746,292.4,746.1,295.7c0.1,12.9,5.5,26.2,14.6,35.4c8.7,8.7,22.9,15.2,35.4,14.6     c12.9-0.6,26.3-4.8,35.4-14.6c8.9-9.7,14.8-21.9,14.6-35.4c-0.1-11.8-1.6-24.2-5.3-35.4c-3.6-10.8-8.2-21.9-14.9-31.2     c-4.3-5.9-8.6-11.8-13.6-17.1c-5.3-5.6-11.7-10.2-17.8-14.8c-9.3-7.1-19.8-11.5-30.8-15.6c-11-4.1-23.4-5.7-35.1-6.2     c-11.6-0.5-23.8,1.2-35,4.3c-11,3.1-22.1,7.7-31.7,14c-9.4,6.2-18.8,13.4-26,22.2c-4.6,5.6-9.3,11.4-13.1,17.6     c-4.1,6.7-6.9,14-9.9,21.3c-4.6,11.3-6.3,23.3-7.2,35.4c-0.9,11.6,0.8,23.9,3.5,35.2c2.6,11.2,7.4,22.3,13.3,32.1     c11.5,19,28.9,36.3,49.2,45.7c6.9,3.2,14,6.4,21.3,8.5c7.7,2.2,16,3,23.9,4c12,1.4,24.2-0.2,36-2.5c4.2-0.8,8.2-2,12.2-3.6     c7.4-2.9,15.1-5.9,22-10c10.4-6.2,20.5-14.1,28.4-23.4c11.3-13.4,18.1-25.4,24.4-41.8c4.6-12.1,6.3-25.7,6.5-38.5     c0.1-12.7-5.7-26.4-14.6-35.4c-8.7-8.7-22.9-15.2-35.4-14.6C768.8,246.9,746.3,267.6,746.1,295.7z"></path></g></g><g><g><path d="M318.7,132.4c0,3.2-0.2,6.4-0.7,9.7c0.6-4.4,1.2-8.9,1.8-13.3c-0.9,6.2-2.6,12.2-5,18c1.7-4,3.4-8,5-11.9     c-2.5,5.6-5.6,10.9-9.3,15.7c2.6-3.4,5.2-6.7,7.8-10.1c-3.5,4.4-7.5,8.4-11.9,11.9c3.4-2.6,6.7-5.2,10.1-7.8     c-4.9,3.8-10.1,6.9-15.7,9.3c4-1.7,8-3.4,11.9-5c-5.8,2.4-11.8,4.1-18,5c4.4-0.6,8.9-1.2,13.3-1.8c-6.5,0.8-12.9,0.8-19.3,0     c4.4,0.6,8.9,1.2,13.3,1.8c-6.2-0.9-12.2-2.6-18-5c4,1.7,8,3.4,11.9,5c-5.6-2.5-10.9-5.6-15.7-9.3c3.4,2.6,6.7,5.2,10.1,7.8     c-4.4-3.5-8.4-7.5-11.9-11.9c2.6,3.4,5.2,6.7,7.8,10.1c-3.8-4.9-6.9-10.1-9.3-15.7c1.7,4,3.4,8,5,11.9c-2.4-5.8-4.1-11.8-5-18     c0.6,4.4,1.2,8.9,1.8,13.3c-0.8-6.5-0.8-12.9,0-19.3c-0.6,4.4-1.2,8.9-1.8,13.3c0.9-6.2,2.6-12.2,5-18c-1.7,4-3.4,8-5,11.9     c2.5-5.6,5.6-10.9,9.3-15.7c-2.6,3.4-5.2,6.7-7.8,10.1c3.5-4.4,7.5-8.4,11.9-11.9c-3.4,2.6-6.7,5.2-10.1,7.8     c4.9-3.8,10.1-6.9,15.7-9.3c-4,1.7-8,3.4-11.9,5c5.8-2.4,11.8-4.1,18-5c-4.4,0.6-8.9,1.2-13.3,1.8c6.5-0.8,12.9-0.8,19.3,0     c-4.4-0.6-8.9-1.2-13.3-1.8c6.2,0.9,12.2,2.6,18,5c-4-1.7-8-3.4-11.9-5c5.6,2.5,10.9,5.6,15.7,9.3c-3.4-2.6-6.7-5.2-10.1-7.8     c4.4,3.5,8.4,7.5,11.9,11.9c-2.6-3.4-5.2-6.7-7.8-10.1c3.8,4.9,6.9,10.1,9.3,15.7c-1.7-4-3.4-8-5-11.9c2.4,5.8,4.1,11.8,5,18     c-0.6-4.4-1.2-8.9-1.8-13.3C318.5,125.9,318.7,129.1,318.7,132.4c0.1,12.9,5.5,26.2,14.6,35.4c8.7,8.7,22.9,15.2,35.4,14.6     c12.9-0.6,26.3-4.8,35.4-14.6c8.9-9.7,14.8-21.9,14.6-35.4c-0.1-11.8-1.6-24.2-5.3-35.4c-3.6-10.8-8.2-21.9-14.9-31.2     c-4.3-5.9-8.6-11.8-13.6-17.1c-5.3-5.6-11.7-10.2-17.8-14.8c-9.3-7.1-19.8-11.5-30.8-15.6c-11-4.1-23.4-5.7-35.1-6.2     c-11.6-0.5-23.8,1.2-35,4.3c-11,3.1-22.1,7.7-31.7,14c-9.4,6.2-18.8,13.4-26,22.2c-4.6,5.6-9.3,11.4-13.1,17.6     c-4.1,6.7-6.9,14-9.9,21.3c-4.6,11.3-6.3,23.3-7.2,35.4c-0.9,11.6,0.8,23.9,3.5,35.2c2.6,11.2,7.4,22.3,13.3,32.1     c11.5,19,28.9,36.3,49.2,45.7c6.9,3.2,14,6.4,21.3,8.5c7.7,2.2,16,3,23.9,4c12,1.4,24.2-0.2,36-2.5c4.2-0.8,8.2-2,12.2-3.6     c7.4-2.9,15.1-5.9,22-10c10.4-6.2,20.5-14.1,28.4-23.4c11.3-13.4,18.1-25.4,24.4-41.8c4.6-12.1,6.3-25.7,6.5-38.5     c0.1-12.7-5.7-26.4-14.6-35.4c-8.7-8.7-22.9-15.2-35.4-14.6C341.4,83.6,319,104.3,318.7,132.4z"></path></g></g><g><g><path d="M319,891.6c0,3.2-0.2,6.4-0.7,9.7c0.6-4.4,1.2-8.9,1.8-13.3c-0.9,6.2-2.6,12.2-5,18c1.7-4,3.4-8,5-11.9     c-2.5,5.6-5.6,10.9-9.3,15.7c2.6-3.4,5.2-6.7,7.8-10.1c-3.5,4.4-7.5,8.4-11.9,11.9c3.4-2.6,6.7-5.2,10.1-7.8     c-4.9,3.8-10.1,6.9-15.7,9.3c4-1.7,8-3.4,11.9-5c-5.8,2.4-11.8,4.1-18,5c4.4-0.6,8.9-1.2,13.3-1.8c-6.5,0.8-12.9,0.8-19.3,0     c4.4,0.6,8.9,1.2,13.3,1.8c-6.2-0.9-12.2-2.6-18-5c4,1.7,8,3.4,11.9,5c-5.6-2.5-10.9-5.6-15.7-9.3c3.4,2.6,6.7,5.2,10.1,7.8     c-4.4-3.5-8.4-7.5-11.9-11.9c2.6,3.4,5.2,6.7,7.8,10.1c-3.8-4.9-6.9-10.1-9.3-15.7c1.7,4,3.4,8,5,11.9c-2.4-5.8-4.1-11.8-5-18     c0.6,4.4,1.2,8.9,1.8,13.3c-0.8-6.5-0.8-12.9,0-19.3c-0.6,4.4-1.2,8.9-1.8,13.3c0.9-6.2,2.6-12.2,5-18c-1.7,4-3.4,8-5,11.9     c2.5-5.6,5.6-10.9,9.3-15.7c-2.6,3.4-5.2,6.7-7.8,10.1c3.5-4.4,7.5-8.4,11.9-11.9c-3.4,2.6-6.7,5.2-10.1,7.8     c4.9-3.8,10.1-6.9,15.7-9.3c-4,1.7-8,3.4-11.9,5c5.8-2.4,11.8-4.1,18-5c-4.4,0.6-8.9,1.2-13.3,1.8c6.5-0.8,12.9-0.8,19.3,0     c-4.4-0.6-8.9-1.2-13.3-1.8c6.2,0.9,12.2,2.6,18,5c-4-1.7-8-3.4-11.9-5c5.6,2.5,10.9,5.6,15.7,9.3c-3.4-2.6-6.7-5.2-10.1-7.8     c4.4,3.5,8.4,7.5,11.9,11.9c-2.6-3.4-5.2-6.7-7.8-10.1c3.8,4.9,6.9,10.1,9.3,15.7c-1.7-4-3.4-8-5-11.9c2.4,5.8,4.1,11.8,5,18     c-0.6-4.4-1.2-8.9-1.8-13.3C318.8,885.2,319,888.4,319,891.6c0.1,12.9,5.5,26.2,14.6,35.4c8.7,8.7,22.9,15.2,35.4,14.6     c12.9-0.6,26.3-4.8,35.4-14.6c8.9-9.7,14.8-21.9,14.6-35.4c-0.1-11.8-1.6-24.2-5.3-35.4c-3.6-10.8-8.2-21.9-14.9-31.2     c-4.3-5.9-8.6-11.8-13.6-17.1c-5.3-5.6-11.7-10.2-17.8-14.8c-9.3-7.1-19.8-11.5-30.8-15.6c-11-4.1-23.4-5.7-35.1-6.2     c-11.6-0.5-23.8,1.2-35,4.3c-11,3.1-22.1,7.7-31.7,14c-9.4,6.2-18.8,13.4-26,22.2c-4.6,5.6-9.3,11.4-13.1,17.6     c-4.1,6.7-6.9,14-9.9,21.3c-4.6,11.3-6.3,23.3-7.2,35.4c-0.9,11.6,0.8,23.9,3.5,35.2c2.6,11.2,7.4,22.3,13.3,32.1     c11.5,19,28.9,36.3,49.2,45.7c6.9,3.2,14,6.4,21.3,8.5c7.7,2.2,16,3,23.9,4c12,1.4,24.2-0.2,36-2.5c4.2-0.8,8.2-2,12.2-3.6     c7.4-2.9,15.1-5.9,22-10c10.4-6.2,20.5-14.1,28.4-23.4c11.3-13.4,18.1-25.4,24.4-41.8c4.6-12.1,6.3-25.7,6.5-38.5     c0.1-12.7-5.7-26.4-14.6-35.4c-8.7-8.7-22.9-15.2-35.4-14.6C341.7,842.9,319.3,863.6,319,891.6z"></path></g></g></g></svg></g></g></svg>