<svg xmlns="http://www.w3.org/2000/svg" xmlns:xlink="http://www.w3.org/1999/xlink" width="1200" height="1200" viewBox="0 0 1200 1200"><g><g transform="translate(600 600) scale(0.69 0.69) rotate(0) translate(-600 -600)" style="fill:#FFFFFF"><svg fill="#FFFFFF" xmlns="http://www.w3.org/2000/svg" xmlns:xlink="http://www.w3.org/1999/xlink" version="1.0" x="0px" y="0px" viewBox="0 0 100 100" enable-background="new 0 0 100 100" xml:space="preserve"><path d="M74.2828598,87.311821l-0.0466766-0.2182083c-4.6807404-17.368103-3.3843842-37.1695747-3.3708115-37.3676071  c0.0147858-0.2140236-0.0081329-0.4215355-0.0601501-0.6180344v-1.5121498c0-1.6873589-1.1383057-4.0528603-6.5614853-5.7393799  c-2.1151276-0.6577339-4.6350098-1.1376114-7.3731422-1.4190865c0.2670174-2.008812,0.5684357-4.0125542,0.8770103-6.0625076  c0.2210426-1.4684982,0.4496155-2.986927,0.6681023-4.5297127c1.0815468-7.6384354,1.6453781-17.0908585-3.6385269-22.4296188  c-3.5913887-3.6286242-9.2025146-4.8858914-17.1541748-3.8434837c-4.4284668,0.5804274-7.6350403,2.2740147-9.5307961,5.0336246  c-3.8274002,5.5715637-1.7299862,14.2687702,0.4905224,23.476675c1.2394161,5.1395226,2.5210419,10.4541092,2.7526379,15.2268524  c0.00144,0.0292854,0.0023232,0.0588036,0.0036716,0.0881386c-0.0035324,0.0670319-0.0059032,0.1334152-0.0059032,0.1984978  v3.0018005c0,0.2249947,0.0229168,0.4445953,0.0667534,0.6591759c-0.202261,15.1535873-5.2665215,31.097168-5.4876099,31.78479  l-0.1165867,0.3271713c-0.3528767,0.9906235,0.1640968,2.0797958,1.1546726,2.4326248  c0.2112789,0.0753098,0.426836,0.1110153,0.6389523,0.1110153c0.7825508,0,1.5160561-0.4863434,1.7937202-1.2656403  l0.1260242-0.3537598l0.0163155-0.0478821c0.2246685-0.6877594,4.746666-14.7010422,5.5638008-29.4464836  c0.8262939,0.3605919,1.7877235,0.686367,2.8837738,0.9764442c1.3858948,0.3667297,2.9484367,0.6674957,4.6315651,0.8988571  c-0.6011124,18.3858719-0.608551,38.0072098-0.608551,38.214119c0,1.0516129,0.8524666,1.9040756,1.9040794,1.9040756  c1.0515633,0,1.9040756-0.8524628,1.9040756-1.9040756c0-0.2053299,0.0073433-19.5812225,0.5979538-37.8267021  c1.5081062,0.1044998,3.0728798,0.1591682,4.6671257,0.1591682c0.3740273,0,0.7457314-0.0039978,1.11623-0.0098534  c0.2501869,6.0810051,1.1549034,13.0399055,3.1460953,21.5459099c0.2396812,1.0239105,1.2638664,1.6592865,2.2879601,1.4199753  c1.0239067-0.2396851,1.6596527-1.2640533,1.4199715-2.2879639c-1.9415474-8.2937546-2.8262253-14.9868889-3.0670738-20.8446236  c3.0572624-0.2234116,5.8711243-0.6545258,8.1930199-1.2688866c1.0214844-0.2703171,1.9247131-0.5720139,2.7119598-0.9036942  c-0.0916214,7.2464638,0.2996979,20.6174011,3.6621399,33.1395874c0.1716309,0.9144745,0.970726,1.5531082,1.8692169,1.5531082  c0.1153793,0,0.2324295-0.0105972,0.3499451-0.0323563C73.7925186,89.3396378,74.4749374,88.3457642,74.2828598,87.311821z   M31.2310524,10.7619686c1.2757683-1.8571253,3.528492-2.9739113,6.8868942-3.4141364  c6.5983505-0.864923,11.2928123,0.0591307,13.9525719,2.7465014c4.1062698,4.1488981,3.5329056,12.4492054,2.5746384,19.2169533  c-0.216114,1.5262375-0.4434319,3.0362968-0.6632652,4.4966164c-0.3201485,2.1269302-0.637188,4.2335014-0.9168472,6.3727074  c-0.6590843-0.0220795-1.3246727-0.034214-1.995842-0.034214c-4.9496231,0-9.628418,0.607296-13.17453,1.7100449  c-1.2678185,0.3942947-2.2988853,0.8259201-3.1385651,1.2770691c-0.5400314-3.9325981-1.5174522-7.9883385-2.4713516-11.9439926  C30.2688351,22.8301735,28.3647575,14.9344826,31.2310524,10.7619686z M42.8997078,52.8697319  c-1.0802956-0.1536369-2.1007614-0.3379097-3.0389938-0.5517464c-2.9637756-0.6755829-4.2471695-1.4386559-4.6453705-1.8117561  c0.0016289-0.9806252-0.0171051-1.9588356-0.0573158-2.931469c0.1537743-0.304718,1.1512299-1.3059387,4.3325195-2.220974  c3.1370316-0.902298,7.2491112-1.3992348,11.5786552-1.3992348c0.5205994,0,1.0378075,0.007576,1.550827,0.021801  c-0.3043442,2.9801865-0.5025635,6.0783577-0.5093498,9.4267159c-0.3459511,0.0054855-0.6928749,0.0092964-1.0414772,0.0092964  c-1.5714226,0-3.1206207-0.0565262-4.6079979-0.1650238C44.6673012,53.1155052,42.8997078,52.8697319,42.8997078,52.8697319z   M62.2776909,52.3179855c-1.8586617,0.4236755-4.0372391,0.7320213-6.3746605,0.9116898  c0.0153389-3.1749191,0.2129517-6.1304207,0.5146027-9.0115013c2.3024635,0.2334099,4.4277229,0.6171989,6.2301788,1.1356125  c3.3287888,0.9574318,4.2673035,2.0098801,4.3493042,2.2594185v2.8172531  C66.7045288,50.7667389,65.4586945,51.5928955,62.2776909,52.3179855z"></path></svg></g></g></svg>